G04 #@! TF.FileFunction,Soldermask,Bot*
%FSLAX46Y46*%
G04 Gerber Fmt 4.6, Leading zero omitted, Abs format (unit mm)*
G04 Created by KiCad (PCBNEW 4.0.4-stable) date 11/01/16 13:43:14*
%MOMM*%
%LPD*%
G01*
G04 APERTURE LIST*
%ADD10C,0.100000*%
%ADD11R,1.550000X1.300000*%
%ADD12O,1.250000X0.950000*%
%ADD13O,1.000000X1.550000*%
%ADD14R,2.032000X2.032000*%
%ADD15O,2.032000X2.032000*%
%ADD16R,0.797560X0.797560*%
G04 APERTURE END LIST*
D10*
G36*
X200070402Y-146921053D02*
X200100052Y-146976454D01*
X200194794Y-147059486D01*
X200364924Y-147175981D01*
X200620741Y-147331773D01*
X200972542Y-147532695D01*
X201430626Y-147784581D01*
X202005290Y-148093263D01*
X202706831Y-148464574D01*
X203545549Y-148904349D01*
X203878667Y-149078264D01*
X204937000Y-149630297D01*
X222445998Y-137932960D01*
X224378781Y-136641441D01*
X226174652Y-135440813D01*
X227837748Y-134328274D01*
X229372207Y-133301018D01*
X230782165Y-132356242D01*
X232071759Y-131491140D01*
X233245127Y-130702910D01*
X234306405Y-129988745D01*
X235259731Y-129345843D01*
X236109241Y-128771399D01*
X236859072Y-128262608D01*
X237513362Y-127816667D01*
X238076248Y-127430770D01*
X238551866Y-127102115D01*
X238944354Y-126827895D01*
X239257848Y-126605308D01*
X239496486Y-126431548D01*
X239664404Y-126303812D01*
X239765740Y-126219296D01*
X239804631Y-126175194D01*
X239802664Y-126167694D01*
X239676669Y-126164222D01*
X239458481Y-126234769D01*
X239130793Y-126386177D01*
X238761333Y-126579188D01*
X238332055Y-126808821D01*
X237816281Y-127081878D01*
X237278195Y-127364518D01*
X236781979Y-127622899D01*
X236771667Y-127628237D01*
X235975146Y-128040973D01*
X235182855Y-128452477D01*
X234423401Y-128847835D01*
X233725389Y-129212137D01*
X233117424Y-129530471D01*
X232628110Y-129787923D01*
X232580667Y-129812991D01*
X232275251Y-129973453D01*
X231857173Y-130191690D01*
X231364336Y-130447991D01*
X230834641Y-130722645D01*
X230305992Y-130995943D01*
X230294667Y-131001787D01*
X229807099Y-131254205D01*
X229356067Y-131489202D01*
X228968719Y-131692515D01*
X228672207Y-131849882D01*
X228493681Y-131947037D01*
X228474333Y-131958098D01*
X228281467Y-132064668D01*
X227990244Y-132218909D01*
X227653790Y-132392811D01*
X227543000Y-132449175D01*
X227222280Y-132613104D01*
X226798537Y-132831795D01*
X226318526Y-133081012D01*
X225829002Y-133336519D01*
X225638000Y-133436630D01*
X225200593Y-133666096D01*
X224774892Y-133889145D01*
X224337666Y-134117911D01*
X223865681Y-134364526D01*
X223335704Y-134641121D01*
X222724502Y-134959830D01*
X222008841Y-135332784D01*
X221193000Y-135757786D01*
X220712362Y-136008558D01*
X220215446Y-136268542D01*
X219752835Y-136511229D01*
X219375113Y-136710109D01*
X219288000Y-136756161D01*
X218949436Y-136934302D01*
X218509098Y-137164424D01*
X218015813Y-137421088D01*
X217518406Y-137678858D01*
X217340667Y-137770674D01*
X216854268Y-138022454D01*
X216353671Y-138282910D01*
X215887714Y-138526546D01*
X215505237Y-138727868D01*
X215393333Y-138787232D01*
X215031769Y-138978370D01*
X214577362Y-139216694D01*
X214087877Y-139471996D01*
X213621082Y-139714065D01*
X213615333Y-139717036D01*
X213118489Y-139974497D01*
X212568570Y-140260694D01*
X212035637Y-140539103D01*
X211625667Y-140754279D01*
X210896324Y-141138074D01*
X210276775Y-141463312D01*
X209727190Y-141750729D01*
X209207739Y-142021057D01*
X208678593Y-142295031D01*
X208099924Y-142593385D01*
X207519333Y-142891936D01*
X207024750Y-143146882D01*
X206572209Y-143381722D01*
X206186591Y-143583418D01*
X205892780Y-143738933D01*
X205715659Y-143835228D01*
X205684692Y-143853230D01*
X205558720Y-143923247D01*
X205305823Y-144057826D01*
X204949869Y-144244485D01*
X204514724Y-144470743D01*
X204024254Y-144724119D01*
X203737359Y-144871642D01*
X203198266Y-145149491D01*
X202675132Y-145421132D01*
X202198476Y-145670568D01*
X201798814Y-145881798D01*
X201506664Y-146038826D01*
X201423333Y-146084781D01*
X201080350Y-146272088D01*
X200729277Y-146456696D01*
X200470833Y-146586482D01*
X200218961Y-146734577D01*
X200084374Y-146871934D01*
X200070402Y-146921053D01*
X200070402Y-146921053D01*
X200070402Y-146921053D01*
G37*
X200070402Y-146921053D02*
X200100052Y-146976454D01*
X200194794Y-147059486D01*
X200364924Y-147175981D01*
X200620741Y-147331773D01*
X200972542Y-147532695D01*
X201430626Y-147784581D01*
X202005290Y-148093263D01*
X202706831Y-148464574D01*
X203545549Y-148904349D01*
X203878667Y-149078264D01*
X204937000Y-149630297D01*
X222445998Y-137932960D01*
X224378781Y-136641441D01*
X226174652Y-135440813D01*
X227837748Y-134328274D01*
X229372207Y-133301018D01*
X230782165Y-132356242D01*
X232071759Y-131491140D01*
X233245127Y-130702910D01*
X234306405Y-129988745D01*
X235259731Y-129345843D01*
X236109241Y-128771399D01*
X236859072Y-128262608D01*
X237513362Y-127816667D01*
X238076248Y-127430770D01*
X238551866Y-127102115D01*
X238944354Y-126827895D01*
X239257848Y-126605308D01*
X239496486Y-126431548D01*
X239664404Y-126303812D01*
X239765740Y-126219296D01*
X239804631Y-126175194D01*
X239802664Y-126167694D01*
X239676669Y-126164222D01*
X239458481Y-126234769D01*
X239130793Y-126386177D01*
X238761333Y-126579188D01*
X238332055Y-126808821D01*
X237816281Y-127081878D01*
X237278195Y-127364518D01*
X236781979Y-127622899D01*
X236771667Y-127628237D01*
X235975146Y-128040973D01*
X235182855Y-128452477D01*
X234423401Y-128847835D01*
X233725389Y-129212137D01*
X233117424Y-129530471D01*
X232628110Y-129787923D01*
X232580667Y-129812991D01*
X232275251Y-129973453D01*
X231857173Y-130191690D01*
X231364336Y-130447991D01*
X230834641Y-130722645D01*
X230305992Y-130995943D01*
X230294667Y-131001787D01*
X229807099Y-131254205D01*
X229356067Y-131489202D01*
X228968719Y-131692515D01*
X228672207Y-131849882D01*
X228493681Y-131947037D01*
X228474333Y-131958098D01*
X228281467Y-132064668D01*
X227990244Y-132218909D01*
X227653790Y-132392811D01*
X227543000Y-132449175D01*
X227222280Y-132613104D01*
X226798537Y-132831795D01*
X226318526Y-133081012D01*
X225829002Y-133336519D01*
X225638000Y-133436630D01*
X225200593Y-133666096D01*
X224774892Y-133889145D01*
X224337666Y-134117911D01*
X223865681Y-134364526D01*
X223335704Y-134641121D01*
X222724502Y-134959830D01*
X222008841Y-135332784D01*
X221193000Y-135757786D01*
X220712362Y-136008558D01*
X220215446Y-136268542D01*
X219752835Y-136511229D01*
X219375113Y-136710109D01*
X219288000Y-136756161D01*
X218949436Y-136934302D01*
X218509098Y-137164424D01*
X218015813Y-137421088D01*
X217518406Y-137678858D01*
X217340667Y-137770674D01*
X216854268Y-138022454D01*
X216353671Y-138282910D01*
X215887714Y-138526546D01*
X215505237Y-138727868D01*
X215393333Y-138787232D01*
X215031769Y-138978370D01*
X214577362Y-139216694D01*
X214087877Y-139471996D01*
X213621082Y-139714065D01*
X213615333Y-139717036D01*
X213118489Y-139974497D01*
X212568570Y-140260694D01*
X212035637Y-140539103D01*
X211625667Y-140754279D01*
X210896324Y-141138074D01*
X210276775Y-141463312D01*
X209727190Y-141750729D01*
X209207739Y-142021057D01*
X208678593Y-142295031D01*
X208099924Y-142593385D01*
X207519333Y-142891936D01*
X207024750Y-143146882D01*
X206572209Y-143381722D01*
X206186591Y-143583418D01*
X205892780Y-143738933D01*
X205715659Y-143835228D01*
X205684692Y-143853230D01*
X205558720Y-143923247D01*
X205305823Y-144057826D01*
X204949869Y-144244485D01*
X204514724Y-144470743D01*
X204024254Y-144724119D01*
X203737359Y-144871642D01*
X203198266Y-145149491D01*
X202675132Y-145421132D01*
X202198476Y-145670568D01*
X201798814Y-145881798D01*
X201506664Y-146038826D01*
X201423333Y-146084781D01*
X201080350Y-146272088D01*
X200729277Y-146456696D01*
X200470833Y-146586482D01*
X200218961Y-146734577D01*
X200084374Y-146871934D01*
X200070402Y-146921053D01*
X200070402Y-146921053D01*
G36*
X233593795Y-172529835D02*
X233029835Y-173093795D01*
X232465875Y-172529835D01*
X233029835Y-171965875D01*
X233593795Y-172529835D01*
X233593795Y-172529835D01*
G37*
G36*
X232534125Y-171470165D02*
X231970165Y-172034125D01*
X231406205Y-171470165D01*
X231970165Y-170906205D01*
X232534125Y-171470165D01*
X232534125Y-171470165D01*
G37*
G36*
X200593795Y-196529835D02*
X200029835Y-197093795D01*
X199465875Y-196529835D01*
X200029835Y-195965875D01*
X200593795Y-196529835D01*
X200593795Y-196529835D01*
G37*
G36*
X199534125Y-195470165D02*
X198970165Y-196034125D01*
X198406205Y-195470165D01*
X198970165Y-194906205D01*
X199534125Y-195470165D01*
X199534125Y-195470165D01*
G37*
G36*
X203593795Y-196529835D02*
X203029835Y-197093795D01*
X202465875Y-196529835D01*
X203029835Y-195965875D01*
X203593795Y-196529835D01*
X203593795Y-196529835D01*
G37*
G36*
X202534125Y-195470165D02*
X201970165Y-196034125D01*
X201406205Y-195470165D01*
X201970165Y-194906205D01*
X202534125Y-195470165D01*
X202534125Y-195470165D01*
G37*
G36*
X206593795Y-196529835D02*
X206029835Y-197093795D01*
X205465875Y-196529835D01*
X206029835Y-195965875D01*
X206593795Y-196529835D01*
X206593795Y-196529835D01*
G37*
G36*
X205534125Y-195470165D02*
X204970165Y-196034125D01*
X204406205Y-195470165D01*
X204970165Y-194906205D01*
X205534125Y-195470165D01*
X205534125Y-195470165D01*
G37*
G36*
X209593795Y-196529835D02*
X209029835Y-197093795D01*
X208465875Y-196529835D01*
X209029835Y-195965875D01*
X209593795Y-196529835D01*
X209593795Y-196529835D01*
G37*
G36*
X208534125Y-195470165D02*
X207970165Y-196034125D01*
X207406205Y-195470165D01*
X207970165Y-194906205D01*
X208534125Y-195470165D01*
X208534125Y-195470165D01*
G37*
G36*
X212593795Y-196529835D02*
X212029835Y-197093795D01*
X211465875Y-196529835D01*
X212029835Y-195965875D01*
X212593795Y-196529835D01*
X212593795Y-196529835D01*
G37*
G36*
X211534125Y-195470165D02*
X210970165Y-196034125D01*
X210406205Y-195470165D01*
X210970165Y-194906205D01*
X211534125Y-195470165D01*
X211534125Y-195470165D01*
G37*
G36*
X215593795Y-196529835D02*
X215029835Y-197093795D01*
X214465875Y-196529835D01*
X215029835Y-195965875D01*
X215593795Y-196529835D01*
X215593795Y-196529835D01*
G37*
G36*
X214534125Y-195470165D02*
X213970165Y-196034125D01*
X213406205Y-195470165D01*
X213970165Y-194906205D01*
X214534125Y-195470165D01*
X214534125Y-195470165D01*
G37*
G36*
X218593795Y-196529835D02*
X218029835Y-197093795D01*
X217465875Y-196529835D01*
X218029835Y-195965875D01*
X218593795Y-196529835D01*
X218593795Y-196529835D01*
G37*
G36*
X217534125Y-195470165D02*
X216970165Y-196034125D01*
X216406205Y-195470165D01*
X216970165Y-194906205D01*
X217534125Y-195470165D01*
X217534125Y-195470165D01*
G37*
G36*
X221593795Y-196529835D02*
X221029835Y-197093795D01*
X220465875Y-196529835D01*
X221029835Y-195965875D01*
X221593795Y-196529835D01*
X221593795Y-196529835D01*
G37*
G36*
X220534125Y-195470165D02*
X219970165Y-196034125D01*
X219406205Y-195470165D01*
X219970165Y-194906205D01*
X220534125Y-195470165D01*
X220534125Y-195470165D01*
G37*
G36*
X224593795Y-196529835D02*
X224029835Y-197093795D01*
X223465875Y-196529835D01*
X224029835Y-195965875D01*
X224593795Y-196529835D01*
X224593795Y-196529835D01*
G37*
G36*
X223534125Y-195470165D02*
X222970165Y-196034125D01*
X222406205Y-195470165D01*
X222970165Y-194906205D01*
X223534125Y-195470165D01*
X223534125Y-195470165D01*
G37*
G36*
X227593795Y-196529835D02*
X227029835Y-197093795D01*
X226465875Y-196529835D01*
X227029835Y-195965875D01*
X227593795Y-196529835D01*
X227593795Y-196529835D01*
G37*
G36*
X226534125Y-195470165D02*
X225970165Y-196034125D01*
X225406205Y-195470165D01*
X225970165Y-194906205D01*
X226534125Y-195470165D01*
X226534125Y-195470165D01*
G37*
G36*
X230593795Y-196529835D02*
X230029835Y-197093795D01*
X229465875Y-196529835D01*
X230029835Y-195965875D01*
X230593795Y-196529835D01*
X230593795Y-196529835D01*
G37*
G36*
X229534125Y-195470165D02*
X228970165Y-196034125D01*
X228406205Y-195470165D01*
X228970165Y-194906205D01*
X229534125Y-195470165D01*
X229534125Y-195470165D01*
G37*
G36*
X233593795Y-196529835D02*
X233029835Y-197093795D01*
X232465875Y-196529835D01*
X233029835Y-195965875D01*
X233593795Y-196529835D01*
X233593795Y-196529835D01*
G37*
G36*
X232534125Y-195470165D02*
X231970165Y-196034125D01*
X231406205Y-195470165D01*
X231970165Y-194906205D01*
X232534125Y-195470165D01*
X232534125Y-195470165D01*
G37*
G36*
X236593795Y-196529835D02*
X236029835Y-197093795D01*
X235465875Y-196529835D01*
X236029835Y-195965875D01*
X236593795Y-196529835D01*
X236593795Y-196529835D01*
G37*
G36*
X235534125Y-195470165D02*
X234970165Y-196034125D01*
X234406205Y-195470165D01*
X234970165Y-194906205D01*
X235534125Y-195470165D01*
X235534125Y-195470165D01*
G37*
G36*
X239593795Y-196529835D02*
X239029835Y-197093795D01*
X238465875Y-196529835D01*
X239029835Y-195965875D01*
X239593795Y-196529835D01*
X239593795Y-196529835D01*
G37*
G36*
X238534125Y-195470165D02*
X237970165Y-196034125D01*
X237406205Y-195470165D01*
X237970165Y-194906205D01*
X238534125Y-195470165D01*
X238534125Y-195470165D01*
G37*
G36*
X242593795Y-196529835D02*
X242029835Y-197093795D01*
X241465875Y-196529835D01*
X242029835Y-195965875D01*
X242593795Y-196529835D01*
X242593795Y-196529835D01*
G37*
G36*
X241534125Y-195470165D02*
X240970165Y-196034125D01*
X240406205Y-195470165D01*
X240970165Y-194906205D01*
X241534125Y-195470165D01*
X241534125Y-195470165D01*
G37*
G36*
X245593795Y-196529835D02*
X245029835Y-197093795D01*
X244465875Y-196529835D01*
X245029835Y-195965875D01*
X245593795Y-196529835D01*
X245593795Y-196529835D01*
G37*
G36*
X244534125Y-195470165D02*
X243970165Y-196034125D01*
X243406205Y-195470165D01*
X243970165Y-194906205D01*
X244534125Y-195470165D01*
X244534125Y-195470165D01*
G37*
G36*
X200593795Y-193529835D02*
X200029835Y-194093795D01*
X199465875Y-193529835D01*
X200029835Y-192965875D01*
X200593795Y-193529835D01*
X200593795Y-193529835D01*
G37*
G36*
X199534125Y-192470165D02*
X198970165Y-193034125D01*
X198406205Y-192470165D01*
X198970165Y-191906205D01*
X199534125Y-192470165D01*
X199534125Y-192470165D01*
G37*
G36*
X203593795Y-193529835D02*
X203029835Y-194093795D01*
X202465875Y-193529835D01*
X203029835Y-192965875D01*
X203593795Y-193529835D01*
X203593795Y-193529835D01*
G37*
G36*
X202534125Y-192470165D02*
X201970165Y-193034125D01*
X201406205Y-192470165D01*
X201970165Y-191906205D01*
X202534125Y-192470165D01*
X202534125Y-192470165D01*
G37*
G36*
X206593795Y-193529835D02*
X206029835Y-194093795D01*
X205465875Y-193529835D01*
X206029835Y-192965875D01*
X206593795Y-193529835D01*
X206593795Y-193529835D01*
G37*
G36*
X205534125Y-192470165D02*
X204970165Y-193034125D01*
X204406205Y-192470165D01*
X204970165Y-191906205D01*
X205534125Y-192470165D01*
X205534125Y-192470165D01*
G37*
G36*
X209593795Y-193529835D02*
X209029835Y-194093795D01*
X208465875Y-193529835D01*
X209029835Y-192965875D01*
X209593795Y-193529835D01*
X209593795Y-193529835D01*
G37*
G36*
X208534125Y-192470165D02*
X207970165Y-193034125D01*
X207406205Y-192470165D01*
X207970165Y-191906205D01*
X208534125Y-192470165D01*
X208534125Y-192470165D01*
G37*
G36*
X212593795Y-193529835D02*
X212029835Y-194093795D01*
X211465875Y-193529835D01*
X212029835Y-192965875D01*
X212593795Y-193529835D01*
X212593795Y-193529835D01*
G37*
G36*
X211534125Y-192470165D02*
X210970165Y-193034125D01*
X210406205Y-192470165D01*
X210970165Y-191906205D01*
X211534125Y-192470165D01*
X211534125Y-192470165D01*
G37*
G36*
X215593795Y-193529835D02*
X215029835Y-194093795D01*
X214465875Y-193529835D01*
X215029835Y-192965875D01*
X215593795Y-193529835D01*
X215593795Y-193529835D01*
G37*
G36*
X214534125Y-192470165D02*
X213970165Y-193034125D01*
X213406205Y-192470165D01*
X213970165Y-191906205D01*
X214534125Y-192470165D01*
X214534125Y-192470165D01*
G37*
G36*
X218593795Y-193529835D02*
X218029835Y-194093795D01*
X217465875Y-193529835D01*
X218029835Y-192965875D01*
X218593795Y-193529835D01*
X218593795Y-193529835D01*
G37*
G36*
X217534125Y-192470165D02*
X216970165Y-193034125D01*
X216406205Y-192470165D01*
X216970165Y-191906205D01*
X217534125Y-192470165D01*
X217534125Y-192470165D01*
G37*
G36*
X221593795Y-193529835D02*
X221029835Y-194093795D01*
X220465875Y-193529835D01*
X221029835Y-192965875D01*
X221593795Y-193529835D01*
X221593795Y-193529835D01*
G37*
G36*
X220534125Y-192470165D02*
X219970165Y-193034125D01*
X219406205Y-192470165D01*
X219970165Y-191906205D01*
X220534125Y-192470165D01*
X220534125Y-192470165D01*
G37*
G36*
X224593795Y-193529835D02*
X224029835Y-194093795D01*
X223465875Y-193529835D01*
X224029835Y-192965875D01*
X224593795Y-193529835D01*
X224593795Y-193529835D01*
G37*
G36*
X223534125Y-192470165D02*
X222970165Y-193034125D01*
X222406205Y-192470165D01*
X222970165Y-191906205D01*
X223534125Y-192470165D01*
X223534125Y-192470165D01*
G37*
G36*
X227593795Y-193529835D02*
X227029835Y-194093795D01*
X226465875Y-193529835D01*
X227029835Y-192965875D01*
X227593795Y-193529835D01*
X227593795Y-193529835D01*
G37*
G36*
X226534125Y-192470165D02*
X225970165Y-193034125D01*
X225406205Y-192470165D01*
X225970165Y-191906205D01*
X226534125Y-192470165D01*
X226534125Y-192470165D01*
G37*
G36*
X230593795Y-193529835D02*
X230029835Y-194093795D01*
X229465875Y-193529835D01*
X230029835Y-192965875D01*
X230593795Y-193529835D01*
X230593795Y-193529835D01*
G37*
G36*
X229534125Y-192470165D02*
X228970165Y-193034125D01*
X228406205Y-192470165D01*
X228970165Y-191906205D01*
X229534125Y-192470165D01*
X229534125Y-192470165D01*
G37*
G36*
X233593795Y-193529835D02*
X233029835Y-194093795D01*
X232465875Y-193529835D01*
X233029835Y-192965875D01*
X233593795Y-193529835D01*
X233593795Y-193529835D01*
G37*
G36*
X232534125Y-192470165D02*
X231970165Y-193034125D01*
X231406205Y-192470165D01*
X231970165Y-191906205D01*
X232534125Y-192470165D01*
X232534125Y-192470165D01*
G37*
G36*
X236593795Y-193529835D02*
X236029835Y-194093795D01*
X235465875Y-193529835D01*
X236029835Y-192965875D01*
X236593795Y-193529835D01*
X236593795Y-193529835D01*
G37*
G36*
X235534125Y-192470165D02*
X234970165Y-193034125D01*
X234406205Y-192470165D01*
X234970165Y-191906205D01*
X235534125Y-192470165D01*
X235534125Y-192470165D01*
G37*
G36*
X239593795Y-193529835D02*
X239029835Y-194093795D01*
X238465875Y-193529835D01*
X239029835Y-192965875D01*
X239593795Y-193529835D01*
X239593795Y-193529835D01*
G37*
G36*
X238534125Y-192470165D02*
X237970165Y-193034125D01*
X237406205Y-192470165D01*
X237970165Y-191906205D01*
X238534125Y-192470165D01*
X238534125Y-192470165D01*
G37*
G36*
X242593795Y-193529835D02*
X242029835Y-194093795D01*
X241465875Y-193529835D01*
X242029835Y-192965875D01*
X242593795Y-193529835D01*
X242593795Y-193529835D01*
G37*
G36*
X241534125Y-192470165D02*
X240970165Y-193034125D01*
X240406205Y-192470165D01*
X240970165Y-191906205D01*
X241534125Y-192470165D01*
X241534125Y-192470165D01*
G37*
G36*
X245593795Y-193529835D02*
X245029835Y-194093795D01*
X244465875Y-193529835D01*
X245029835Y-192965875D01*
X245593795Y-193529835D01*
X245593795Y-193529835D01*
G37*
G36*
X244534125Y-192470165D02*
X243970165Y-193034125D01*
X243406205Y-192470165D01*
X243970165Y-191906205D01*
X244534125Y-192470165D01*
X244534125Y-192470165D01*
G37*
G36*
X200593795Y-190529835D02*
X200029835Y-191093795D01*
X199465875Y-190529835D01*
X200029835Y-189965875D01*
X200593795Y-190529835D01*
X200593795Y-190529835D01*
G37*
G36*
X199534125Y-189470165D02*
X198970165Y-190034125D01*
X198406205Y-189470165D01*
X198970165Y-188906205D01*
X199534125Y-189470165D01*
X199534125Y-189470165D01*
G37*
G36*
X203593795Y-190529835D02*
X203029835Y-191093795D01*
X202465875Y-190529835D01*
X203029835Y-189965875D01*
X203593795Y-190529835D01*
X203593795Y-190529835D01*
G37*
G36*
X202534125Y-189470165D02*
X201970165Y-190034125D01*
X201406205Y-189470165D01*
X201970165Y-188906205D01*
X202534125Y-189470165D01*
X202534125Y-189470165D01*
G37*
G36*
X206593795Y-190529835D02*
X206029835Y-191093795D01*
X205465875Y-190529835D01*
X206029835Y-189965875D01*
X206593795Y-190529835D01*
X206593795Y-190529835D01*
G37*
G36*
X205534125Y-189470165D02*
X204970165Y-190034125D01*
X204406205Y-189470165D01*
X204970165Y-188906205D01*
X205534125Y-189470165D01*
X205534125Y-189470165D01*
G37*
G36*
X209593795Y-190529835D02*
X209029835Y-191093795D01*
X208465875Y-190529835D01*
X209029835Y-189965875D01*
X209593795Y-190529835D01*
X209593795Y-190529835D01*
G37*
G36*
X208534125Y-189470165D02*
X207970165Y-190034125D01*
X207406205Y-189470165D01*
X207970165Y-188906205D01*
X208534125Y-189470165D01*
X208534125Y-189470165D01*
G37*
G36*
X212593795Y-190529835D02*
X212029835Y-191093795D01*
X211465875Y-190529835D01*
X212029835Y-189965875D01*
X212593795Y-190529835D01*
X212593795Y-190529835D01*
G37*
G36*
X211534125Y-189470165D02*
X210970165Y-190034125D01*
X210406205Y-189470165D01*
X210970165Y-188906205D01*
X211534125Y-189470165D01*
X211534125Y-189470165D01*
G37*
G36*
X215593795Y-190529835D02*
X215029835Y-191093795D01*
X214465875Y-190529835D01*
X215029835Y-189965875D01*
X215593795Y-190529835D01*
X215593795Y-190529835D01*
G37*
G36*
X214534125Y-189470165D02*
X213970165Y-190034125D01*
X213406205Y-189470165D01*
X213970165Y-188906205D01*
X214534125Y-189470165D01*
X214534125Y-189470165D01*
G37*
G36*
X218593795Y-190529835D02*
X218029835Y-191093795D01*
X217465875Y-190529835D01*
X218029835Y-189965875D01*
X218593795Y-190529835D01*
X218593795Y-190529835D01*
G37*
G36*
X217534125Y-189470165D02*
X216970165Y-190034125D01*
X216406205Y-189470165D01*
X216970165Y-188906205D01*
X217534125Y-189470165D01*
X217534125Y-189470165D01*
G37*
G36*
X221593795Y-190529835D02*
X221029835Y-191093795D01*
X220465875Y-190529835D01*
X221029835Y-189965875D01*
X221593795Y-190529835D01*
X221593795Y-190529835D01*
G37*
G36*
X220534125Y-189470165D02*
X219970165Y-190034125D01*
X219406205Y-189470165D01*
X219970165Y-188906205D01*
X220534125Y-189470165D01*
X220534125Y-189470165D01*
G37*
G36*
X224593795Y-190529835D02*
X224029835Y-191093795D01*
X223465875Y-190529835D01*
X224029835Y-189965875D01*
X224593795Y-190529835D01*
X224593795Y-190529835D01*
G37*
G36*
X223534125Y-189470165D02*
X222970165Y-190034125D01*
X222406205Y-189470165D01*
X222970165Y-188906205D01*
X223534125Y-189470165D01*
X223534125Y-189470165D01*
G37*
G36*
X227593795Y-190529835D02*
X227029835Y-191093795D01*
X226465875Y-190529835D01*
X227029835Y-189965875D01*
X227593795Y-190529835D01*
X227593795Y-190529835D01*
G37*
G36*
X226534125Y-189470165D02*
X225970165Y-190034125D01*
X225406205Y-189470165D01*
X225970165Y-188906205D01*
X226534125Y-189470165D01*
X226534125Y-189470165D01*
G37*
G36*
X230593795Y-190529835D02*
X230029835Y-191093795D01*
X229465875Y-190529835D01*
X230029835Y-189965875D01*
X230593795Y-190529835D01*
X230593795Y-190529835D01*
G37*
G36*
X229534125Y-189470165D02*
X228970165Y-190034125D01*
X228406205Y-189470165D01*
X228970165Y-188906205D01*
X229534125Y-189470165D01*
X229534125Y-189470165D01*
G37*
G36*
X233593795Y-190529835D02*
X233029835Y-191093795D01*
X232465875Y-190529835D01*
X233029835Y-189965875D01*
X233593795Y-190529835D01*
X233593795Y-190529835D01*
G37*
G36*
X232534125Y-189470165D02*
X231970165Y-190034125D01*
X231406205Y-189470165D01*
X231970165Y-188906205D01*
X232534125Y-189470165D01*
X232534125Y-189470165D01*
G37*
G36*
X236593795Y-190529835D02*
X236029835Y-191093795D01*
X235465875Y-190529835D01*
X236029835Y-189965875D01*
X236593795Y-190529835D01*
X236593795Y-190529835D01*
G37*
G36*
X235534125Y-189470165D02*
X234970165Y-190034125D01*
X234406205Y-189470165D01*
X234970165Y-188906205D01*
X235534125Y-189470165D01*
X235534125Y-189470165D01*
G37*
G36*
X239593795Y-190529835D02*
X239029835Y-191093795D01*
X238465875Y-190529835D01*
X239029835Y-189965875D01*
X239593795Y-190529835D01*
X239593795Y-190529835D01*
G37*
G36*
X238534125Y-189470165D02*
X237970165Y-190034125D01*
X237406205Y-189470165D01*
X237970165Y-188906205D01*
X238534125Y-189470165D01*
X238534125Y-189470165D01*
G37*
G36*
X242593795Y-190529835D02*
X242029835Y-191093795D01*
X241465875Y-190529835D01*
X242029835Y-189965875D01*
X242593795Y-190529835D01*
X242593795Y-190529835D01*
G37*
G36*
X241534125Y-189470165D02*
X240970165Y-190034125D01*
X240406205Y-189470165D01*
X240970165Y-188906205D01*
X241534125Y-189470165D01*
X241534125Y-189470165D01*
G37*
G36*
X245593795Y-190529835D02*
X245029835Y-191093795D01*
X244465875Y-190529835D01*
X245029835Y-189965875D01*
X245593795Y-190529835D01*
X245593795Y-190529835D01*
G37*
G36*
X244534125Y-189470165D02*
X243970165Y-190034125D01*
X243406205Y-189470165D01*
X243970165Y-188906205D01*
X244534125Y-189470165D01*
X244534125Y-189470165D01*
G37*
G36*
X200593795Y-187529835D02*
X200029835Y-188093795D01*
X199465875Y-187529835D01*
X200029835Y-186965875D01*
X200593795Y-187529835D01*
X200593795Y-187529835D01*
G37*
G36*
X199534125Y-186470165D02*
X198970165Y-187034125D01*
X198406205Y-186470165D01*
X198970165Y-185906205D01*
X199534125Y-186470165D01*
X199534125Y-186470165D01*
G37*
G36*
X203593795Y-187529835D02*
X203029835Y-188093795D01*
X202465875Y-187529835D01*
X203029835Y-186965875D01*
X203593795Y-187529835D01*
X203593795Y-187529835D01*
G37*
G36*
X202534125Y-186470165D02*
X201970165Y-187034125D01*
X201406205Y-186470165D01*
X201970165Y-185906205D01*
X202534125Y-186470165D01*
X202534125Y-186470165D01*
G37*
G36*
X206593795Y-187529835D02*
X206029835Y-188093795D01*
X205465875Y-187529835D01*
X206029835Y-186965875D01*
X206593795Y-187529835D01*
X206593795Y-187529835D01*
G37*
G36*
X205534125Y-186470165D02*
X204970165Y-187034125D01*
X204406205Y-186470165D01*
X204970165Y-185906205D01*
X205534125Y-186470165D01*
X205534125Y-186470165D01*
G37*
G36*
X209593795Y-187529835D02*
X209029835Y-188093795D01*
X208465875Y-187529835D01*
X209029835Y-186965875D01*
X209593795Y-187529835D01*
X209593795Y-187529835D01*
G37*
G36*
X208534125Y-186470165D02*
X207970165Y-187034125D01*
X207406205Y-186470165D01*
X207970165Y-185906205D01*
X208534125Y-186470165D01*
X208534125Y-186470165D01*
G37*
G36*
X212593795Y-187529835D02*
X212029835Y-188093795D01*
X211465875Y-187529835D01*
X212029835Y-186965875D01*
X212593795Y-187529835D01*
X212593795Y-187529835D01*
G37*
G36*
X211534125Y-186470165D02*
X210970165Y-187034125D01*
X210406205Y-186470165D01*
X210970165Y-185906205D01*
X211534125Y-186470165D01*
X211534125Y-186470165D01*
G37*
G36*
X215593795Y-187529835D02*
X215029835Y-188093795D01*
X214465875Y-187529835D01*
X215029835Y-186965875D01*
X215593795Y-187529835D01*
X215593795Y-187529835D01*
G37*
G36*
X214534125Y-186470165D02*
X213970165Y-187034125D01*
X213406205Y-186470165D01*
X213970165Y-185906205D01*
X214534125Y-186470165D01*
X214534125Y-186470165D01*
G37*
G36*
X218593795Y-187529835D02*
X218029835Y-188093795D01*
X217465875Y-187529835D01*
X218029835Y-186965875D01*
X218593795Y-187529835D01*
X218593795Y-187529835D01*
G37*
G36*
X217534125Y-186470165D02*
X216970165Y-187034125D01*
X216406205Y-186470165D01*
X216970165Y-185906205D01*
X217534125Y-186470165D01*
X217534125Y-186470165D01*
G37*
G36*
X221593795Y-187529835D02*
X221029835Y-188093795D01*
X220465875Y-187529835D01*
X221029835Y-186965875D01*
X221593795Y-187529835D01*
X221593795Y-187529835D01*
G37*
G36*
X220534125Y-186470165D02*
X219970165Y-187034125D01*
X219406205Y-186470165D01*
X219970165Y-185906205D01*
X220534125Y-186470165D01*
X220534125Y-186470165D01*
G37*
G36*
X224593795Y-187529835D02*
X224029835Y-188093795D01*
X223465875Y-187529835D01*
X224029835Y-186965875D01*
X224593795Y-187529835D01*
X224593795Y-187529835D01*
G37*
G36*
X223534125Y-186470165D02*
X222970165Y-187034125D01*
X222406205Y-186470165D01*
X222970165Y-185906205D01*
X223534125Y-186470165D01*
X223534125Y-186470165D01*
G37*
G36*
X227593795Y-187529835D02*
X227029835Y-188093795D01*
X226465875Y-187529835D01*
X227029835Y-186965875D01*
X227593795Y-187529835D01*
X227593795Y-187529835D01*
G37*
G36*
X226534125Y-186470165D02*
X225970165Y-187034125D01*
X225406205Y-186470165D01*
X225970165Y-185906205D01*
X226534125Y-186470165D01*
X226534125Y-186470165D01*
G37*
G36*
X230593795Y-187529835D02*
X230029835Y-188093795D01*
X229465875Y-187529835D01*
X230029835Y-186965875D01*
X230593795Y-187529835D01*
X230593795Y-187529835D01*
G37*
G36*
X229534125Y-186470165D02*
X228970165Y-187034125D01*
X228406205Y-186470165D01*
X228970165Y-185906205D01*
X229534125Y-186470165D01*
X229534125Y-186470165D01*
G37*
G36*
X233593795Y-187529835D02*
X233029835Y-188093795D01*
X232465875Y-187529835D01*
X233029835Y-186965875D01*
X233593795Y-187529835D01*
X233593795Y-187529835D01*
G37*
G36*
X232534125Y-186470165D02*
X231970165Y-187034125D01*
X231406205Y-186470165D01*
X231970165Y-185906205D01*
X232534125Y-186470165D01*
X232534125Y-186470165D01*
G37*
G36*
X236593795Y-187529835D02*
X236029835Y-188093795D01*
X235465875Y-187529835D01*
X236029835Y-186965875D01*
X236593795Y-187529835D01*
X236593795Y-187529835D01*
G37*
G36*
X235534125Y-186470165D02*
X234970165Y-187034125D01*
X234406205Y-186470165D01*
X234970165Y-185906205D01*
X235534125Y-186470165D01*
X235534125Y-186470165D01*
G37*
G36*
X239593795Y-187529835D02*
X239029835Y-188093795D01*
X238465875Y-187529835D01*
X239029835Y-186965875D01*
X239593795Y-187529835D01*
X239593795Y-187529835D01*
G37*
G36*
X238534125Y-186470165D02*
X237970165Y-187034125D01*
X237406205Y-186470165D01*
X237970165Y-185906205D01*
X238534125Y-186470165D01*
X238534125Y-186470165D01*
G37*
G36*
X242593795Y-187529835D02*
X242029835Y-188093795D01*
X241465875Y-187529835D01*
X242029835Y-186965875D01*
X242593795Y-187529835D01*
X242593795Y-187529835D01*
G37*
G36*
X241534125Y-186470165D02*
X240970165Y-187034125D01*
X240406205Y-186470165D01*
X240970165Y-185906205D01*
X241534125Y-186470165D01*
X241534125Y-186470165D01*
G37*
G36*
X245593795Y-187529835D02*
X245029835Y-188093795D01*
X244465875Y-187529835D01*
X245029835Y-186965875D01*
X245593795Y-187529835D01*
X245593795Y-187529835D01*
G37*
G36*
X244534125Y-186470165D02*
X243970165Y-187034125D01*
X243406205Y-186470165D01*
X243970165Y-185906205D01*
X244534125Y-186470165D01*
X244534125Y-186470165D01*
G37*
G36*
X200593795Y-184529835D02*
X200029835Y-185093795D01*
X199465875Y-184529835D01*
X200029835Y-183965875D01*
X200593795Y-184529835D01*
X200593795Y-184529835D01*
G37*
G36*
X199534125Y-183470165D02*
X198970165Y-184034125D01*
X198406205Y-183470165D01*
X198970165Y-182906205D01*
X199534125Y-183470165D01*
X199534125Y-183470165D01*
G37*
G36*
X203593795Y-184529835D02*
X203029835Y-185093795D01*
X202465875Y-184529835D01*
X203029835Y-183965875D01*
X203593795Y-184529835D01*
X203593795Y-184529835D01*
G37*
G36*
X202534125Y-183470165D02*
X201970165Y-184034125D01*
X201406205Y-183470165D01*
X201970165Y-182906205D01*
X202534125Y-183470165D01*
X202534125Y-183470165D01*
G37*
G36*
X206593795Y-184529835D02*
X206029835Y-185093795D01*
X205465875Y-184529835D01*
X206029835Y-183965875D01*
X206593795Y-184529835D01*
X206593795Y-184529835D01*
G37*
G36*
X205534125Y-183470165D02*
X204970165Y-184034125D01*
X204406205Y-183470165D01*
X204970165Y-182906205D01*
X205534125Y-183470165D01*
X205534125Y-183470165D01*
G37*
G36*
X209593795Y-184529835D02*
X209029835Y-185093795D01*
X208465875Y-184529835D01*
X209029835Y-183965875D01*
X209593795Y-184529835D01*
X209593795Y-184529835D01*
G37*
G36*
X208534125Y-183470165D02*
X207970165Y-184034125D01*
X207406205Y-183470165D01*
X207970165Y-182906205D01*
X208534125Y-183470165D01*
X208534125Y-183470165D01*
G37*
G36*
X212593795Y-184529835D02*
X212029835Y-185093795D01*
X211465875Y-184529835D01*
X212029835Y-183965875D01*
X212593795Y-184529835D01*
X212593795Y-184529835D01*
G37*
G36*
X211534125Y-183470165D02*
X210970165Y-184034125D01*
X210406205Y-183470165D01*
X210970165Y-182906205D01*
X211534125Y-183470165D01*
X211534125Y-183470165D01*
G37*
G36*
X215593795Y-184529835D02*
X215029835Y-185093795D01*
X214465875Y-184529835D01*
X215029835Y-183965875D01*
X215593795Y-184529835D01*
X215593795Y-184529835D01*
G37*
G36*
X214534125Y-183470165D02*
X213970165Y-184034125D01*
X213406205Y-183470165D01*
X213970165Y-182906205D01*
X214534125Y-183470165D01*
X214534125Y-183470165D01*
G37*
G36*
X218593795Y-184529835D02*
X218029835Y-185093795D01*
X217465875Y-184529835D01*
X218029835Y-183965875D01*
X218593795Y-184529835D01*
X218593795Y-184529835D01*
G37*
G36*
X217534125Y-183470165D02*
X216970165Y-184034125D01*
X216406205Y-183470165D01*
X216970165Y-182906205D01*
X217534125Y-183470165D01*
X217534125Y-183470165D01*
G37*
G36*
X221593795Y-184529835D02*
X221029835Y-185093795D01*
X220465875Y-184529835D01*
X221029835Y-183965875D01*
X221593795Y-184529835D01*
X221593795Y-184529835D01*
G37*
G36*
X220534125Y-183470165D02*
X219970165Y-184034125D01*
X219406205Y-183470165D01*
X219970165Y-182906205D01*
X220534125Y-183470165D01*
X220534125Y-183470165D01*
G37*
G36*
X224593795Y-184529835D02*
X224029835Y-185093795D01*
X223465875Y-184529835D01*
X224029835Y-183965875D01*
X224593795Y-184529835D01*
X224593795Y-184529835D01*
G37*
G36*
X223534125Y-183470165D02*
X222970165Y-184034125D01*
X222406205Y-183470165D01*
X222970165Y-182906205D01*
X223534125Y-183470165D01*
X223534125Y-183470165D01*
G37*
G36*
X227593795Y-184529835D02*
X227029835Y-185093795D01*
X226465875Y-184529835D01*
X227029835Y-183965875D01*
X227593795Y-184529835D01*
X227593795Y-184529835D01*
G37*
G36*
X226534125Y-183470165D02*
X225970165Y-184034125D01*
X225406205Y-183470165D01*
X225970165Y-182906205D01*
X226534125Y-183470165D01*
X226534125Y-183470165D01*
G37*
G36*
X230593795Y-184529835D02*
X230029835Y-185093795D01*
X229465875Y-184529835D01*
X230029835Y-183965875D01*
X230593795Y-184529835D01*
X230593795Y-184529835D01*
G37*
G36*
X229534125Y-183470165D02*
X228970165Y-184034125D01*
X228406205Y-183470165D01*
X228970165Y-182906205D01*
X229534125Y-183470165D01*
X229534125Y-183470165D01*
G37*
G36*
X233593795Y-184529835D02*
X233029835Y-185093795D01*
X232465875Y-184529835D01*
X233029835Y-183965875D01*
X233593795Y-184529835D01*
X233593795Y-184529835D01*
G37*
G36*
X232534125Y-183470165D02*
X231970165Y-184034125D01*
X231406205Y-183470165D01*
X231970165Y-182906205D01*
X232534125Y-183470165D01*
X232534125Y-183470165D01*
G37*
G36*
X236593795Y-184529835D02*
X236029835Y-185093795D01*
X235465875Y-184529835D01*
X236029835Y-183965875D01*
X236593795Y-184529835D01*
X236593795Y-184529835D01*
G37*
G36*
X235534125Y-183470165D02*
X234970165Y-184034125D01*
X234406205Y-183470165D01*
X234970165Y-182906205D01*
X235534125Y-183470165D01*
X235534125Y-183470165D01*
G37*
G36*
X239593795Y-184529835D02*
X239029835Y-185093795D01*
X238465875Y-184529835D01*
X239029835Y-183965875D01*
X239593795Y-184529835D01*
X239593795Y-184529835D01*
G37*
G36*
X238534125Y-183470165D02*
X237970165Y-184034125D01*
X237406205Y-183470165D01*
X237970165Y-182906205D01*
X238534125Y-183470165D01*
X238534125Y-183470165D01*
G37*
G36*
X242593795Y-184529835D02*
X242029835Y-185093795D01*
X241465875Y-184529835D01*
X242029835Y-183965875D01*
X242593795Y-184529835D01*
X242593795Y-184529835D01*
G37*
G36*
X241534125Y-183470165D02*
X240970165Y-184034125D01*
X240406205Y-183470165D01*
X240970165Y-182906205D01*
X241534125Y-183470165D01*
X241534125Y-183470165D01*
G37*
G36*
X245593795Y-184529835D02*
X245029835Y-185093795D01*
X244465875Y-184529835D01*
X245029835Y-183965875D01*
X245593795Y-184529835D01*
X245593795Y-184529835D01*
G37*
G36*
X244534125Y-183470165D02*
X243970165Y-184034125D01*
X243406205Y-183470165D01*
X243970165Y-182906205D01*
X244534125Y-183470165D01*
X244534125Y-183470165D01*
G37*
G36*
X200593795Y-181529835D02*
X200029835Y-182093795D01*
X199465875Y-181529835D01*
X200029835Y-180965875D01*
X200593795Y-181529835D01*
X200593795Y-181529835D01*
G37*
G36*
X199534125Y-180470165D02*
X198970165Y-181034125D01*
X198406205Y-180470165D01*
X198970165Y-179906205D01*
X199534125Y-180470165D01*
X199534125Y-180470165D01*
G37*
G36*
X203593795Y-181529835D02*
X203029835Y-182093795D01*
X202465875Y-181529835D01*
X203029835Y-180965875D01*
X203593795Y-181529835D01*
X203593795Y-181529835D01*
G37*
G36*
X202534125Y-180470165D02*
X201970165Y-181034125D01*
X201406205Y-180470165D01*
X201970165Y-179906205D01*
X202534125Y-180470165D01*
X202534125Y-180470165D01*
G37*
G36*
X206593795Y-181529835D02*
X206029835Y-182093795D01*
X205465875Y-181529835D01*
X206029835Y-180965875D01*
X206593795Y-181529835D01*
X206593795Y-181529835D01*
G37*
G36*
X205534125Y-180470165D02*
X204970165Y-181034125D01*
X204406205Y-180470165D01*
X204970165Y-179906205D01*
X205534125Y-180470165D01*
X205534125Y-180470165D01*
G37*
G36*
X209593795Y-181529835D02*
X209029835Y-182093795D01*
X208465875Y-181529835D01*
X209029835Y-180965875D01*
X209593795Y-181529835D01*
X209593795Y-181529835D01*
G37*
G36*
X208534125Y-180470165D02*
X207970165Y-181034125D01*
X207406205Y-180470165D01*
X207970165Y-179906205D01*
X208534125Y-180470165D01*
X208534125Y-180470165D01*
G37*
G36*
X212593795Y-181529835D02*
X212029835Y-182093795D01*
X211465875Y-181529835D01*
X212029835Y-180965875D01*
X212593795Y-181529835D01*
X212593795Y-181529835D01*
G37*
G36*
X211534125Y-180470165D02*
X210970165Y-181034125D01*
X210406205Y-180470165D01*
X210970165Y-179906205D01*
X211534125Y-180470165D01*
X211534125Y-180470165D01*
G37*
G36*
X215593795Y-181529835D02*
X215029835Y-182093795D01*
X214465875Y-181529835D01*
X215029835Y-180965875D01*
X215593795Y-181529835D01*
X215593795Y-181529835D01*
G37*
G36*
X214534125Y-180470165D02*
X213970165Y-181034125D01*
X213406205Y-180470165D01*
X213970165Y-179906205D01*
X214534125Y-180470165D01*
X214534125Y-180470165D01*
G37*
G36*
X218593795Y-181529835D02*
X218029835Y-182093795D01*
X217465875Y-181529835D01*
X218029835Y-180965875D01*
X218593795Y-181529835D01*
X218593795Y-181529835D01*
G37*
G36*
X217534125Y-180470165D02*
X216970165Y-181034125D01*
X216406205Y-180470165D01*
X216970165Y-179906205D01*
X217534125Y-180470165D01*
X217534125Y-180470165D01*
G37*
G36*
X221593795Y-181529835D02*
X221029835Y-182093795D01*
X220465875Y-181529835D01*
X221029835Y-180965875D01*
X221593795Y-181529835D01*
X221593795Y-181529835D01*
G37*
G36*
X220534125Y-180470165D02*
X219970165Y-181034125D01*
X219406205Y-180470165D01*
X219970165Y-179906205D01*
X220534125Y-180470165D01*
X220534125Y-180470165D01*
G37*
G36*
X224593795Y-181529835D02*
X224029835Y-182093795D01*
X223465875Y-181529835D01*
X224029835Y-180965875D01*
X224593795Y-181529835D01*
X224593795Y-181529835D01*
G37*
G36*
X223534125Y-180470165D02*
X222970165Y-181034125D01*
X222406205Y-180470165D01*
X222970165Y-179906205D01*
X223534125Y-180470165D01*
X223534125Y-180470165D01*
G37*
G36*
X227593795Y-181529835D02*
X227029835Y-182093795D01*
X226465875Y-181529835D01*
X227029835Y-180965875D01*
X227593795Y-181529835D01*
X227593795Y-181529835D01*
G37*
G36*
X226534125Y-180470165D02*
X225970165Y-181034125D01*
X225406205Y-180470165D01*
X225970165Y-179906205D01*
X226534125Y-180470165D01*
X226534125Y-180470165D01*
G37*
G36*
X230593795Y-181529835D02*
X230029835Y-182093795D01*
X229465875Y-181529835D01*
X230029835Y-180965875D01*
X230593795Y-181529835D01*
X230593795Y-181529835D01*
G37*
G36*
X229534125Y-180470165D02*
X228970165Y-181034125D01*
X228406205Y-180470165D01*
X228970165Y-179906205D01*
X229534125Y-180470165D01*
X229534125Y-180470165D01*
G37*
G36*
X233593795Y-181529835D02*
X233029835Y-182093795D01*
X232465875Y-181529835D01*
X233029835Y-180965875D01*
X233593795Y-181529835D01*
X233593795Y-181529835D01*
G37*
G36*
X232534125Y-180470165D02*
X231970165Y-181034125D01*
X231406205Y-180470165D01*
X231970165Y-179906205D01*
X232534125Y-180470165D01*
X232534125Y-180470165D01*
G37*
G36*
X236593795Y-181529835D02*
X236029835Y-182093795D01*
X235465875Y-181529835D01*
X236029835Y-180965875D01*
X236593795Y-181529835D01*
X236593795Y-181529835D01*
G37*
G36*
X235534125Y-180470165D02*
X234970165Y-181034125D01*
X234406205Y-180470165D01*
X234970165Y-179906205D01*
X235534125Y-180470165D01*
X235534125Y-180470165D01*
G37*
G36*
X239593795Y-181529835D02*
X239029835Y-182093795D01*
X238465875Y-181529835D01*
X239029835Y-180965875D01*
X239593795Y-181529835D01*
X239593795Y-181529835D01*
G37*
G36*
X238534125Y-180470165D02*
X237970165Y-181034125D01*
X237406205Y-180470165D01*
X237970165Y-179906205D01*
X238534125Y-180470165D01*
X238534125Y-180470165D01*
G37*
G36*
X242593795Y-181529835D02*
X242029835Y-182093795D01*
X241465875Y-181529835D01*
X242029835Y-180965875D01*
X242593795Y-181529835D01*
X242593795Y-181529835D01*
G37*
G36*
X241534125Y-180470165D02*
X240970165Y-181034125D01*
X240406205Y-180470165D01*
X240970165Y-179906205D01*
X241534125Y-180470165D01*
X241534125Y-180470165D01*
G37*
G36*
X245593795Y-181529835D02*
X245029835Y-182093795D01*
X244465875Y-181529835D01*
X245029835Y-180965875D01*
X245593795Y-181529835D01*
X245593795Y-181529835D01*
G37*
G36*
X244534125Y-180470165D02*
X243970165Y-181034125D01*
X243406205Y-180470165D01*
X243970165Y-179906205D01*
X244534125Y-180470165D01*
X244534125Y-180470165D01*
G37*
G36*
X200593795Y-178529835D02*
X200029835Y-179093795D01*
X199465875Y-178529835D01*
X200029835Y-177965875D01*
X200593795Y-178529835D01*
X200593795Y-178529835D01*
G37*
G36*
X199534125Y-177470165D02*
X198970165Y-178034125D01*
X198406205Y-177470165D01*
X198970165Y-176906205D01*
X199534125Y-177470165D01*
X199534125Y-177470165D01*
G37*
G36*
X203593795Y-178529835D02*
X203029835Y-179093795D01*
X202465875Y-178529835D01*
X203029835Y-177965875D01*
X203593795Y-178529835D01*
X203593795Y-178529835D01*
G37*
G36*
X202534125Y-177470165D02*
X201970165Y-178034125D01*
X201406205Y-177470165D01*
X201970165Y-176906205D01*
X202534125Y-177470165D01*
X202534125Y-177470165D01*
G37*
G36*
X206593795Y-178529835D02*
X206029835Y-179093795D01*
X205465875Y-178529835D01*
X206029835Y-177965875D01*
X206593795Y-178529835D01*
X206593795Y-178529835D01*
G37*
G36*
X205534125Y-177470165D02*
X204970165Y-178034125D01*
X204406205Y-177470165D01*
X204970165Y-176906205D01*
X205534125Y-177470165D01*
X205534125Y-177470165D01*
G37*
G36*
X209593795Y-178529835D02*
X209029835Y-179093795D01*
X208465875Y-178529835D01*
X209029835Y-177965875D01*
X209593795Y-178529835D01*
X209593795Y-178529835D01*
G37*
G36*
X208534125Y-177470165D02*
X207970165Y-178034125D01*
X207406205Y-177470165D01*
X207970165Y-176906205D01*
X208534125Y-177470165D01*
X208534125Y-177470165D01*
G37*
G36*
X212593795Y-178529835D02*
X212029835Y-179093795D01*
X211465875Y-178529835D01*
X212029835Y-177965875D01*
X212593795Y-178529835D01*
X212593795Y-178529835D01*
G37*
G36*
X211534125Y-177470165D02*
X210970165Y-178034125D01*
X210406205Y-177470165D01*
X210970165Y-176906205D01*
X211534125Y-177470165D01*
X211534125Y-177470165D01*
G37*
G36*
X215593795Y-178529835D02*
X215029835Y-179093795D01*
X214465875Y-178529835D01*
X215029835Y-177965875D01*
X215593795Y-178529835D01*
X215593795Y-178529835D01*
G37*
G36*
X214534125Y-177470165D02*
X213970165Y-178034125D01*
X213406205Y-177470165D01*
X213970165Y-176906205D01*
X214534125Y-177470165D01*
X214534125Y-177470165D01*
G37*
G36*
X218593795Y-178529835D02*
X218029835Y-179093795D01*
X217465875Y-178529835D01*
X218029835Y-177965875D01*
X218593795Y-178529835D01*
X218593795Y-178529835D01*
G37*
G36*
X217534125Y-177470165D02*
X216970165Y-178034125D01*
X216406205Y-177470165D01*
X216970165Y-176906205D01*
X217534125Y-177470165D01*
X217534125Y-177470165D01*
G37*
G36*
X221593795Y-178529835D02*
X221029835Y-179093795D01*
X220465875Y-178529835D01*
X221029835Y-177965875D01*
X221593795Y-178529835D01*
X221593795Y-178529835D01*
G37*
G36*
X220534125Y-177470165D02*
X219970165Y-178034125D01*
X219406205Y-177470165D01*
X219970165Y-176906205D01*
X220534125Y-177470165D01*
X220534125Y-177470165D01*
G37*
G36*
X224593795Y-178529835D02*
X224029835Y-179093795D01*
X223465875Y-178529835D01*
X224029835Y-177965875D01*
X224593795Y-178529835D01*
X224593795Y-178529835D01*
G37*
G36*
X223534125Y-177470165D02*
X222970165Y-178034125D01*
X222406205Y-177470165D01*
X222970165Y-176906205D01*
X223534125Y-177470165D01*
X223534125Y-177470165D01*
G37*
G36*
X227593795Y-178529835D02*
X227029835Y-179093795D01*
X226465875Y-178529835D01*
X227029835Y-177965875D01*
X227593795Y-178529835D01*
X227593795Y-178529835D01*
G37*
G36*
X226534125Y-177470165D02*
X225970165Y-178034125D01*
X225406205Y-177470165D01*
X225970165Y-176906205D01*
X226534125Y-177470165D01*
X226534125Y-177470165D01*
G37*
G36*
X230593795Y-178529835D02*
X230029835Y-179093795D01*
X229465875Y-178529835D01*
X230029835Y-177965875D01*
X230593795Y-178529835D01*
X230593795Y-178529835D01*
G37*
G36*
X229534125Y-177470165D02*
X228970165Y-178034125D01*
X228406205Y-177470165D01*
X228970165Y-176906205D01*
X229534125Y-177470165D01*
X229534125Y-177470165D01*
G37*
G36*
X233593795Y-178529835D02*
X233029835Y-179093795D01*
X232465875Y-178529835D01*
X233029835Y-177965875D01*
X233593795Y-178529835D01*
X233593795Y-178529835D01*
G37*
G36*
X232534125Y-177470165D02*
X231970165Y-178034125D01*
X231406205Y-177470165D01*
X231970165Y-176906205D01*
X232534125Y-177470165D01*
X232534125Y-177470165D01*
G37*
G36*
X236593795Y-178529835D02*
X236029835Y-179093795D01*
X235465875Y-178529835D01*
X236029835Y-177965875D01*
X236593795Y-178529835D01*
X236593795Y-178529835D01*
G37*
G36*
X235534125Y-177470165D02*
X234970165Y-178034125D01*
X234406205Y-177470165D01*
X234970165Y-176906205D01*
X235534125Y-177470165D01*
X235534125Y-177470165D01*
G37*
G36*
X239593795Y-178529835D02*
X239029835Y-179093795D01*
X238465875Y-178529835D01*
X239029835Y-177965875D01*
X239593795Y-178529835D01*
X239593795Y-178529835D01*
G37*
G36*
X238534125Y-177470165D02*
X237970165Y-178034125D01*
X237406205Y-177470165D01*
X237970165Y-176906205D01*
X238534125Y-177470165D01*
X238534125Y-177470165D01*
G37*
G36*
X242593795Y-178529835D02*
X242029835Y-179093795D01*
X241465875Y-178529835D01*
X242029835Y-177965875D01*
X242593795Y-178529835D01*
X242593795Y-178529835D01*
G37*
G36*
X241534125Y-177470165D02*
X240970165Y-178034125D01*
X240406205Y-177470165D01*
X240970165Y-176906205D01*
X241534125Y-177470165D01*
X241534125Y-177470165D01*
G37*
G36*
X245593795Y-178529835D02*
X245029835Y-179093795D01*
X244465875Y-178529835D01*
X245029835Y-177965875D01*
X245593795Y-178529835D01*
X245593795Y-178529835D01*
G37*
G36*
X244534125Y-177470165D02*
X243970165Y-178034125D01*
X243406205Y-177470165D01*
X243970165Y-176906205D01*
X244534125Y-177470165D01*
X244534125Y-177470165D01*
G37*
G36*
X200593795Y-175529835D02*
X200029835Y-176093795D01*
X199465875Y-175529835D01*
X200029835Y-174965875D01*
X200593795Y-175529835D01*
X200593795Y-175529835D01*
G37*
G36*
X199534125Y-174470165D02*
X198970165Y-175034125D01*
X198406205Y-174470165D01*
X198970165Y-173906205D01*
X199534125Y-174470165D01*
X199534125Y-174470165D01*
G37*
G36*
X203593795Y-175529835D02*
X203029835Y-176093795D01*
X202465875Y-175529835D01*
X203029835Y-174965875D01*
X203593795Y-175529835D01*
X203593795Y-175529835D01*
G37*
G36*
X202534125Y-174470165D02*
X201970165Y-175034125D01*
X201406205Y-174470165D01*
X201970165Y-173906205D01*
X202534125Y-174470165D01*
X202534125Y-174470165D01*
G37*
G36*
X206593795Y-175529835D02*
X206029835Y-176093795D01*
X205465875Y-175529835D01*
X206029835Y-174965875D01*
X206593795Y-175529835D01*
X206593795Y-175529835D01*
G37*
G36*
X205534125Y-174470165D02*
X204970165Y-175034125D01*
X204406205Y-174470165D01*
X204970165Y-173906205D01*
X205534125Y-174470165D01*
X205534125Y-174470165D01*
G37*
G36*
X209593795Y-175529835D02*
X209029835Y-176093795D01*
X208465875Y-175529835D01*
X209029835Y-174965875D01*
X209593795Y-175529835D01*
X209593795Y-175529835D01*
G37*
G36*
X208534125Y-174470165D02*
X207970165Y-175034125D01*
X207406205Y-174470165D01*
X207970165Y-173906205D01*
X208534125Y-174470165D01*
X208534125Y-174470165D01*
G37*
G36*
X212593795Y-175529835D02*
X212029835Y-176093795D01*
X211465875Y-175529835D01*
X212029835Y-174965875D01*
X212593795Y-175529835D01*
X212593795Y-175529835D01*
G37*
G36*
X211534125Y-174470165D02*
X210970165Y-175034125D01*
X210406205Y-174470165D01*
X210970165Y-173906205D01*
X211534125Y-174470165D01*
X211534125Y-174470165D01*
G37*
G36*
X215593795Y-175529835D02*
X215029835Y-176093795D01*
X214465875Y-175529835D01*
X215029835Y-174965875D01*
X215593795Y-175529835D01*
X215593795Y-175529835D01*
G37*
G36*
X214534125Y-174470165D02*
X213970165Y-175034125D01*
X213406205Y-174470165D01*
X213970165Y-173906205D01*
X214534125Y-174470165D01*
X214534125Y-174470165D01*
G37*
G36*
X218593795Y-175529835D02*
X218029835Y-176093795D01*
X217465875Y-175529835D01*
X218029835Y-174965875D01*
X218593795Y-175529835D01*
X218593795Y-175529835D01*
G37*
G36*
X217534125Y-174470165D02*
X216970165Y-175034125D01*
X216406205Y-174470165D01*
X216970165Y-173906205D01*
X217534125Y-174470165D01*
X217534125Y-174470165D01*
G37*
G36*
X221593795Y-175529835D02*
X221029835Y-176093795D01*
X220465875Y-175529835D01*
X221029835Y-174965875D01*
X221593795Y-175529835D01*
X221593795Y-175529835D01*
G37*
G36*
X220534125Y-174470165D02*
X219970165Y-175034125D01*
X219406205Y-174470165D01*
X219970165Y-173906205D01*
X220534125Y-174470165D01*
X220534125Y-174470165D01*
G37*
G36*
X224593795Y-175529835D02*
X224029835Y-176093795D01*
X223465875Y-175529835D01*
X224029835Y-174965875D01*
X224593795Y-175529835D01*
X224593795Y-175529835D01*
G37*
G36*
X223534125Y-174470165D02*
X222970165Y-175034125D01*
X222406205Y-174470165D01*
X222970165Y-173906205D01*
X223534125Y-174470165D01*
X223534125Y-174470165D01*
G37*
G36*
X227593795Y-175529835D02*
X227029835Y-176093795D01*
X226465875Y-175529835D01*
X227029835Y-174965875D01*
X227593795Y-175529835D01*
X227593795Y-175529835D01*
G37*
G36*
X226534125Y-174470165D02*
X225970165Y-175034125D01*
X225406205Y-174470165D01*
X225970165Y-173906205D01*
X226534125Y-174470165D01*
X226534125Y-174470165D01*
G37*
G36*
X230593795Y-175529835D02*
X230029835Y-176093795D01*
X229465875Y-175529835D01*
X230029835Y-174965875D01*
X230593795Y-175529835D01*
X230593795Y-175529835D01*
G37*
G36*
X229534125Y-174470165D02*
X228970165Y-175034125D01*
X228406205Y-174470165D01*
X228970165Y-173906205D01*
X229534125Y-174470165D01*
X229534125Y-174470165D01*
G37*
G36*
X233593795Y-175529835D02*
X233029835Y-176093795D01*
X232465875Y-175529835D01*
X233029835Y-174965875D01*
X233593795Y-175529835D01*
X233593795Y-175529835D01*
G37*
G36*
X232534125Y-174470165D02*
X231970165Y-175034125D01*
X231406205Y-174470165D01*
X231970165Y-173906205D01*
X232534125Y-174470165D01*
X232534125Y-174470165D01*
G37*
G36*
X236593795Y-175529835D02*
X236029835Y-176093795D01*
X235465875Y-175529835D01*
X236029835Y-174965875D01*
X236593795Y-175529835D01*
X236593795Y-175529835D01*
G37*
G36*
X235534125Y-174470165D02*
X234970165Y-175034125D01*
X234406205Y-174470165D01*
X234970165Y-173906205D01*
X235534125Y-174470165D01*
X235534125Y-174470165D01*
G37*
G36*
X239593795Y-175529835D02*
X239029835Y-176093795D01*
X238465875Y-175529835D01*
X239029835Y-174965875D01*
X239593795Y-175529835D01*
X239593795Y-175529835D01*
G37*
G36*
X238534125Y-174470165D02*
X237970165Y-175034125D01*
X237406205Y-174470165D01*
X237970165Y-173906205D01*
X238534125Y-174470165D01*
X238534125Y-174470165D01*
G37*
G36*
X242593795Y-175529835D02*
X242029835Y-176093795D01*
X241465875Y-175529835D01*
X242029835Y-174965875D01*
X242593795Y-175529835D01*
X242593795Y-175529835D01*
G37*
G36*
X241534125Y-174470165D02*
X240970165Y-175034125D01*
X240406205Y-174470165D01*
X240970165Y-173906205D01*
X241534125Y-174470165D01*
X241534125Y-174470165D01*
G37*
G36*
X245593795Y-175529835D02*
X245029835Y-176093795D01*
X244465875Y-175529835D01*
X245029835Y-174965875D01*
X245593795Y-175529835D01*
X245593795Y-175529835D01*
G37*
G36*
X244534125Y-174470165D02*
X243970165Y-175034125D01*
X243406205Y-174470165D01*
X243970165Y-173906205D01*
X244534125Y-174470165D01*
X244534125Y-174470165D01*
G37*
G36*
X200593795Y-172529835D02*
X200029835Y-173093795D01*
X199465875Y-172529835D01*
X200029835Y-171965875D01*
X200593795Y-172529835D01*
X200593795Y-172529835D01*
G37*
G36*
X199534125Y-171470165D02*
X198970165Y-172034125D01*
X198406205Y-171470165D01*
X198970165Y-170906205D01*
X199534125Y-171470165D01*
X199534125Y-171470165D01*
G37*
G36*
X203593795Y-172529835D02*
X203029835Y-173093795D01*
X202465875Y-172529835D01*
X203029835Y-171965875D01*
X203593795Y-172529835D01*
X203593795Y-172529835D01*
G37*
G36*
X202534125Y-171470165D02*
X201970165Y-172034125D01*
X201406205Y-171470165D01*
X201970165Y-170906205D01*
X202534125Y-171470165D01*
X202534125Y-171470165D01*
G37*
G36*
X206593795Y-172529835D02*
X206029835Y-173093795D01*
X205465875Y-172529835D01*
X206029835Y-171965875D01*
X206593795Y-172529835D01*
X206593795Y-172529835D01*
G37*
G36*
X205534125Y-171470165D02*
X204970165Y-172034125D01*
X204406205Y-171470165D01*
X204970165Y-170906205D01*
X205534125Y-171470165D01*
X205534125Y-171470165D01*
G37*
G36*
X209593795Y-172529835D02*
X209029835Y-173093795D01*
X208465875Y-172529835D01*
X209029835Y-171965875D01*
X209593795Y-172529835D01*
X209593795Y-172529835D01*
G37*
G36*
X208534125Y-171470165D02*
X207970165Y-172034125D01*
X207406205Y-171470165D01*
X207970165Y-170906205D01*
X208534125Y-171470165D01*
X208534125Y-171470165D01*
G37*
G36*
X212593795Y-172529835D02*
X212029835Y-173093795D01*
X211465875Y-172529835D01*
X212029835Y-171965875D01*
X212593795Y-172529835D01*
X212593795Y-172529835D01*
G37*
G36*
X211534125Y-171470165D02*
X210970165Y-172034125D01*
X210406205Y-171470165D01*
X210970165Y-170906205D01*
X211534125Y-171470165D01*
X211534125Y-171470165D01*
G37*
G36*
X215593795Y-172529835D02*
X215029835Y-173093795D01*
X214465875Y-172529835D01*
X215029835Y-171965875D01*
X215593795Y-172529835D01*
X215593795Y-172529835D01*
G37*
G36*
X214534125Y-171470165D02*
X213970165Y-172034125D01*
X213406205Y-171470165D01*
X213970165Y-170906205D01*
X214534125Y-171470165D01*
X214534125Y-171470165D01*
G37*
G36*
X218593795Y-172529835D02*
X218029835Y-173093795D01*
X217465875Y-172529835D01*
X218029835Y-171965875D01*
X218593795Y-172529835D01*
X218593795Y-172529835D01*
G37*
G36*
X217534125Y-171470165D02*
X216970165Y-172034125D01*
X216406205Y-171470165D01*
X216970165Y-170906205D01*
X217534125Y-171470165D01*
X217534125Y-171470165D01*
G37*
G36*
X221593795Y-172529835D02*
X221029835Y-173093795D01*
X220465875Y-172529835D01*
X221029835Y-171965875D01*
X221593795Y-172529835D01*
X221593795Y-172529835D01*
G37*
G36*
X220534125Y-171470165D02*
X219970165Y-172034125D01*
X219406205Y-171470165D01*
X219970165Y-170906205D01*
X220534125Y-171470165D01*
X220534125Y-171470165D01*
G37*
G36*
X224593795Y-172529835D02*
X224029835Y-173093795D01*
X223465875Y-172529835D01*
X224029835Y-171965875D01*
X224593795Y-172529835D01*
X224593795Y-172529835D01*
G37*
G36*
X223534125Y-171470165D02*
X222970165Y-172034125D01*
X222406205Y-171470165D01*
X222970165Y-170906205D01*
X223534125Y-171470165D01*
X223534125Y-171470165D01*
G37*
G36*
X227593795Y-172529835D02*
X227029835Y-173093795D01*
X226465875Y-172529835D01*
X227029835Y-171965875D01*
X227593795Y-172529835D01*
X227593795Y-172529835D01*
G37*
G36*
X226534125Y-171470165D02*
X225970165Y-172034125D01*
X225406205Y-171470165D01*
X225970165Y-170906205D01*
X226534125Y-171470165D01*
X226534125Y-171470165D01*
G37*
G36*
X230593795Y-172529835D02*
X230029835Y-173093795D01*
X229465875Y-172529835D01*
X230029835Y-171965875D01*
X230593795Y-172529835D01*
X230593795Y-172529835D01*
G37*
G36*
X229534125Y-171470165D02*
X228970165Y-172034125D01*
X228406205Y-171470165D01*
X228970165Y-170906205D01*
X229534125Y-171470165D01*
X229534125Y-171470165D01*
G37*
G36*
X236593795Y-172529835D02*
X236029835Y-173093795D01*
X235465875Y-172529835D01*
X236029835Y-171965875D01*
X236593795Y-172529835D01*
X236593795Y-172529835D01*
G37*
G36*
X235534125Y-171470165D02*
X234970165Y-172034125D01*
X234406205Y-171470165D01*
X234970165Y-170906205D01*
X235534125Y-171470165D01*
X235534125Y-171470165D01*
G37*
G36*
X239593795Y-172529835D02*
X239029835Y-173093795D01*
X238465875Y-172529835D01*
X239029835Y-171965875D01*
X239593795Y-172529835D01*
X239593795Y-172529835D01*
G37*
G36*
X238534125Y-171470165D02*
X237970165Y-172034125D01*
X237406205Y-171470165D01*
X237970165Y-170906205D01*
X238534125Y-171470165D01*
X238534125Y-171470165D01*
G37*
G36*
X242593795Y-172529835D02*
X242029835Y-173093795D01*
X241465875Y-172529835D01*
X242029835Y-171965875D01*
X242593795Y-172529835D01*
X242593795Y-172529835D01*
G37*
G36*
X241534125Y-171470165D02*
X240970165Y-172034125D01*
X240406205Y-171470165D01*
X240970165Y-170906205D01*
X241534125Y-171470165D01*
X241534125Y-171470165D01*
G37*
D11*
X265025000Y-187750000D03*
X265025000Y-192250000D03*
X272975000Y-192250000D03*
X272975000Y-187750000D03*
D10*
G36*
X245593795Y-172529835D02*
X245029835Y-173093795D01*
X244465875Y-172529835D01*
X245029835Y-171965875D01*
X245593795Y-172529835D01*
X245593795Y-172529835D01*
G37*
G36*
X244534125Y-171470165D02*
X243970165Y-172034125D01*
X243406205Y-171470165D01*
X243970165Y-170906205D01*
X244534125Y-171470165D01*
X244534125Y-171470165D01*
G37*
D12*
X253749100Y-194437460D03*
X258749100Y-194437460D03*
D13*
X252749100Y-197137460D03*
X259749100Y-197137460D03*
D14*
X279050000Y-103700000D03*
D15*
X281590000Y-103700000D03*
D11*
X171025000Y-187750000D03*
X171025000Y-192250000D03*
X178975000Y-192250000D03*
X178975000Y-187750000D03*
D16*
X231250700Y-105000000D03*
X232749300Y-105000000D03*
X212749300Y-105000000D03*
X211250700Y-105000000D03*
M02*
