M48
;DRILL file {KiCad 4.0.4-stable} date 11/01/16 13:40:27
;FORMAT={-:-/ absolute / inch / decimal}
FMAT,2
INCH,TZ
T1C0.016
T2C0.020
T3C0.022
T4C0.040
%
G90
G05
M72
T1
X6.7835Y-6.5748
X6.7854Y-6.437
X6.8957Y-6.2283
X6.9154Y-6.7618
X7.0161Y-6.6783
X7.0161Y-6.6783
X7.0197Y-6.5768
X7.1161Y-7.3898
X7.124Y-6.7854
X7.124Y-6.7854
X7.1504Y-6.8453
X7.1504Y-6.8453
X7.1724Y-6.9008
X7.1724Y-6.9008
X7.1921Y-6.9559
X7.1921Y-6.9559
X7.2138Y-7.0098
X7.2138Y-7.0098
X7.2138Y-7.0098
X7.2302Y-7.0568
X7.2302Y-7.0568
X7.2302Y-7.0568
X7.2484Y-7.1067
X7.2484Y-7.1067
X7.4039Y-6.689
X7.4039Y-6.689
X7.4039Y-6.689
X7.4764Y-6.5413
X7.5177Y-6.6161
X7.6555Y-6.4961
X7.7717Y-6.8681
X7.7736Y-6.9882
X7.7736Y-6.9882
X7.7736Y-6.9882
X7.7736Y-6.9882
X7.7756Y-7.1043
X7.7756Y-7.1043
X7.7756Y-7.1043
X7.7756Y-7.3425
X7.7756Y-7.3425
X7.7756Y-7.3425
X7.7756Y-7.4587
X7.7756Y-7.4587
X7.7776Y-7.2244
X7.7776Y-7.2244
X7.7776Y-7.2244
X7.7795Y-7.5787
X7.9015Y-7.3425
X7.9016Y-7.5787
X7.9016Y-7.5787
X7.9043Y-6.9882
X7.9044Y-7.1043
X7.9047Y-7.4587
X7.9055Y-7.7067
X7.9055Y-7.7067
X7.9064Y-7.2244
X7.9073Y-6.8681
X7.9921Y-7.668
X8.0197Y-7.4626
X8.0197Y-7.4626
X8.0205Y-6.9882
X8.0208Y-7.2244
X8.0218Y-6.8681
X8.0245Y-7.1043
X8.025Y-7.3425
X8.0394Y-7.7461
X8.0394Y-7.7461
X8.1102Y-7.5453
X8.1102Y-7.6668
X8.1398Y-7.3445
X8.1398Y-7.3445
X8.1398Y-7.2244
X8.1402Y-6.9882
X8.1408Y-7.1043
X8.1427Y-6.8681
X8.1614Y-7.748
X8.1614Y-7.748
X8.2283Y-7.4277
X8.2283Y-7.5475
X8.2283Y-7.6683
X8.2578Y-6.9882
X8.2579Y-7.2362
X8.2579Y-7.2362
X8.2598Y-6.8681
X8.2616Y-7.1043
X8.2717Y-4.1339
X8.2736Y-7.752
X8.2736Y-7.752
X8.3445Y-6.3976
X8.3465Y-7.309
X8.3465Y-7.4303
X8.3465Y-7.5476
X8.3465Y-7.6649
X8.374Y-7.1083
X8.374Y-7.1083
X8.3761Y-6.9882
X8.3777Y-6.8681
X8.3937Y-7.7539
X8.3937Y-7.7539
X8.4173Y-4.1909
X8.435Y-4.1339
X8.4665Y-7.194
X8.4665Y-7.3116
X8.4665Y-7.4277
X8.4665Y-7.5467
X8.4665Y-7.6671
X8.4724Y-6.2559
X8.4952Y-6.8681
X8.4961Y-6.9862
X8.4961Y-6.9862
X8.502Y-6.2874
X8.5138Y-7.752
X8.5138Y-7.752
X8.5846Y-6.9685
X8.5846Y-7.1919
X8.5846Y-7.3115
X8.5846Y-7.4302
X8.5846Y-7.5475
X8.5846Y-7.6653
X8.622Y-6.8878
X8.622Y-6.8878
X8.6319Y-7.75
X8.6319Y-7.75
X8.6929Y-6.8346
X8.6929Y-6.8346
X8.7264Y-6.8701
X8.7264Y-6.8701
X8.7303Y-6.9862
X8.7303Y-6.9862
X8.7303Y-6.9862
X8.7303Y-7.2224
X8.7303Y-7.3406
X8.7323Y-6.7504
X8.7323Y-7.5768
X8.7323Y-7.5768
X8.7343Y-7.1043
X8.7343Y-7.1043
X8.7343Y-7.1043
X8.7343Y-7.4587
X8.7343Y-7.4587
X8.7343Y-7.4587
X8.8024Y-6.6098
X8.8402Y-6.7504
X8.847Y-6.9862
X8.8475Y-7.3445
X8.8481Y-6.8701
X8.8484Y-7.5768
X8.8484Y-7.5768
X8.8485Y-7.4587
X8.8499Y-7.1043
X8.8499Y-7.2224
X8.8677Y-7.7465
X8.8677Y-7.7465
X8.9098Y-6.6193
X8.9098Y-6.6193
X8.937Y-7.6679
X8.9609Y-6.7504
X8.9643Y-7.3445
X8.9646Y-7.4587
X8.9646Y-7.4587
X8.9651Y-7.1043
X8.9655Y-6.8701
X8.9685Y-6.9862
X8.9691Y-7.2224
X8.9843Y-7.7465
X8.9843Y-7.7465
X9.0205Y-6.6384
X9.0433Y-4.1339
X9.0551Y-7.5449
X9.0551Y-7.6677
X9.0768Y-4.2559
X9.0798Y-6.7504
X9.0838Y-6.8701
X9.0839Y-7.1043
X9.0847Y-7.2224
X9.0866Y-7.3406
X9.0866Y-7.3406
X9.0874Y-6.9862
X9.1039Y-7.7472
X9.1039Y-7.7472
X9.1366Y-6.6555
X9.1752Y-7.4269
X9.1752Y-7.5437
X9.1752Y-7.6653
X9.2005Y-6.7504
X9.2015Y-6.9862
X9.2023Y-6.8701
X9.2027Y-7.1043
X9.2028Y-7.2205
X9.2028Y-7.2205
X9.2047Y-4.1358
X9.2201Y-7.7433
X9.2201Y-7.7433
X9.2488Y-6.6772
X9.2933Y-7.31
X9.2933Y-7.4265
X9.2933Y-7.5447
X9.2933Y-7.6664
X9.3158Y-6.7504
X9.3187Y-6.8701
X9.3204Y-6.9862
X9.3228Y-7.1043
X9.3228Y-7.1043
X9.3354Y-7.7465
X9.3354Y-7.7465
X9.3961Y-6.6909
X9.4114Y-7.1915
X9.4114Y-7.3102
X9.4114Y-7.4275
X9.4114Y-7.5455
X9.4114Y-7.6656
X9.4347Y-6.7504
X9.4394Y-6.8701
X9.4409Y-6.9882
X9.4409Y-6.9882
X9.4559Y-7.7465
X9.4559Y-7.7465
X9.5118Y-6.7028
X9.5295Y-7.0707
X9.5295Y-7.1899
X9.5295Y-7.3114
X9.5295Y-7.4278
X9.5295Y-7.5464
X9.5295Y-7.6649
X9.5543Y-6.7496
X9.5543Y-6.7496
X9.5571Y-6.872
X9.5571Y-6.872
X9.5736Y-7.7453
X9.5736Y-7.7453
X9.6811Y-6.8248
X9.6811Y-6.8248
X9.8307Y-4.7283
X10.0098Y-7.2854
X10.0177Y-7.0945
X10.1319Y-5.0512
X10.1417Y-7.5886
X10.1969Y-5.5472
X10.2697Y-6.0571
X10.2854Y-7.0335
X10.3445Y-7.0748
X10.3445Y-7.0748
X10.3858Y-5.998
X10.437Y-6.7795
X10.4843Y-7.2539
X10.4862Y-7.3642
X10.4921Y-4.8976
X10.5256Y-7.4114
X10.5906Y-6.7677
X10.5906Y-6.9744
X10.5906Y-6.9744
X10.6024Y-5.7362
X10.6634Y-5.7382
X10.7067Y-6.2559
X10.7362Y-6.8661
X10.7579Y-5.2362
X10.7854Y-6.376
X10.8169Y-7.3937
X10.9193Y-6.0197
X10.935Y-6.0669
X11.0256Y-5.8661
X11.0551Y-5.4469
X11.0787Y-4.2815
X11.126Y-4.2598
X11.2323Y-6.0138
X11.3051Y-5.5866
X11.3051Y-5.6378
X11.5177Y-6.3898
T2
X10.5531Y-6.6742
X11.2323Y-5.3898
X11.2323Y-5.3898
X11.2323Y-5.3898
X11.2323Y-5.3898
X11.2323Y-5.3898
T4
X10.9862Y-4.0827
X11.0862Y-4.0827
T2
X9.9508Y-7.7741G85X9.9508Y-7.7485
G05
X10.2263Y-7.7741G85X10.2263Y-7.7485
G05
T3
X9.9842Y-7.655G85X9.996Y-7.655
G05
X10.1811Y-7.655G85X10.1929Y-7.655
G05
T0
M30
