G04 #@! TF.FileFunction,Profile,NP*
%FSLAX46Y46*%
G04 Gerber Fmt 4.6, Leading zero omitted, Abs format (unit mm)*
G04 Created by KiCad (PCBNEW 4.0.4-stable) date 11/01/16 13:43:14*
%MOMM*%
%LPD*%
G01*
G04 APERTURE LIST*
%ADD10C,0.100000*%
G04 APERTURE END LIST*
D10*
X200263110Y-96234433D02*
X195194751Y-96303952D01*
X195194751Y-96303952D02*
X188545154Y-96528836D01*
X188545154Y-96528836D02*
X184931415Y-96668347D01*
X184931415Y-96668347D02*
X177782092Y-96921963D01*
X177782092Y-96921963D02*
X174880603Y-97070645D01*
X174880603Y-97070645D02*
X172044605Y-97284253D01*
X172044605Y-97284253D02*
X170293872Y-97465298D01*
X170293872Y-97465298D02*
X168588428Y-97689816D01*
X168588428Y-97689816D02*
X167203845Y-97915539D01*
X167203845Y-97915539D02*
X165860217Y-98180233D01*
X165860217Y-98180233D02*
X164712756Y-98449078D01*
X164712756Y-98449078D02*
X163603442Y-98753979D01*
X163603442Y-98753979D02*
X162634326Y-99063382D01*
X162634326Y-99063382D02*
X161701099Y-99406537D01*
X161701099Y-99406537D02*
X160875232Y-99754147D01*
X160875232Y-99754147D02*
X160083301Y-100133633D01*
X160083301Y-100133633D02*
X159376575Y-100517804D01*
X159376575Y-100517804D02*
X158702258Y-100932354D01*
X158702258Y-100932354D02*
X158173206Y-101296795D01*
X158173206Y-101296795D02*
X156923694Y-102300732D01*
X156923694Y-102300732D02*
X155777942Y-103423626D01*
X155777942Y-103423626D02*
X154726764Y-104675015D01*
X154726764Y-104675015D02*
X153763080Y-106068127D01*
X153763080Y-106068127D02*
X152881793Y-107620221D01*
X152881793Y-107620221D02*
X152079547Y-109353344D01*
X152079547Y-109353344D02*
X151354449Y-111295727D01*
X151354449Y-111295727D02*
X150705508Y-113484265D01*
X150705508Y-113484265D02*
X150132114Y-115969296D01*
X150132114Y-115969296D02*
X149632907Y-118824353D01*
X149632907Y-118824353D02*
X149203906Y-122168728D01*
X149203906Y-122168728D02*
X149060962Y-123571179D01*
X149060962Y-123571179D02*
X148596530Y-129253018D01*
X148596530Y-129253018D02*
X148253070Y-135396847D01*
X148253070Y-135396847D02*
X148046405Y-141922238D01*
X148046405Y-141922238D02*
X147989108Y-148710049D01*
X147989108Y-148710049D02*
X148088367Y-155602444D01*
X148088367Y-155602444D02*
X148343738Y-162410531D01*
X148343738Y-162410531D02*
X148526782Y-165710122D01*
X148526782Y-165710122D02*
X148745715Y-168931454D01*
X148745715Y-168931454D02*
X148771686Y-169277070D01*
X148771686Y-169277070D02*
X149051563Y-172612992D01*
X149051563Y-172612992D02*
X149402637Y-175830304D01*
X149402637Y-175830304D02*
X149645343Y-177575234D01*
X149645343Y-177575234D02*
X149929233Y-179268910D01*
X149929233Y-179268910D02*
X150202930Y-180641224D01*
X150202930Y-180641224D02*
X150514011Y-181971379D01*
X150514011Y-181971379D02*
X150796634Y-183017765D01*
X150796634Y-183017765D02*
X151138858Y-184132962D01*
X151138858Y-184132962D02*
X151512225Y-185206894D01*
X151512225Y-185206894D02*
X151894870Y-186183705D01*
X151894870Y-186183705D02*
X152307666Y-187123410D01*
X152307666Y-187123410D02*
X152730319Y-187984692D01*
X152730319Y-187984692D02*
X153182361Y-188812018D01*
X153182361Y-188812018D02*
X153645587Y-189575303D01*
X153645587Y-189575303D02*
X154137744Y-190307005D01*
X154137744Y-190307005D02*
X154643192Y-190985972D01*
X154643192Y-190985972D02*
X155177417Y-191635094D01*
X155177417Y-191635094D02*
X155727954Y-192240416D01*
X155727954Y-192240416D02*
X156307483Y-192817086D01*
X156307483Y-192817086D02*
X156907245Y-193356938D01*
X156907245Y-193356938D02*
X157536548Y-193868842D01*
X157536548Y-193868842D02*
X158190967Y-194349200D01*
X158190967Y-194349200D02*
X158875903Y-194801875D01*
X158875903Y-194801875D02*
X160339587Y-195623749D01*
X160339587Y-195623749D02*
X161944446Y-196338385D01*
X161944446Y-196338385D02*
X163710010Y-196946295D01*
X163710010Y-196946295D02*
X165658862Y-197444809D01*
X165658862Y-197444809D02*
X167430103Y-197770932D01*
X167430103Y-197770932D02*
X171177051Y-198271702D01*
X171177051Y-198271702D02*
X175426593Y-198683003D01*
X175426593Y-198683003D02*
X180330920Y-199003712D01*
X180330920Y-199003712D02*
X181749377Y-199072682D01*
X181749377Y-199072682D02*
X189334827Y-199374178D01*
X189334827Y-199374178D02*
X193040179Y-199467606D01*
X193040179Y-199467606D02*
X196761890Y-199506337D01*
X196761890Y-199506337D02*
X197081073Y-199506600D01*
X197081073Y-199506600D02*
X203206714Y-199573307D01*
X203206714Y-199573307D02*
X211598743Y-199782986D01*
X211598743Y-199782986D02*
X218544147Y-199921475D01*
X218544147Y-199921475D02*
X221972125Y-199933720D01*
X221972125Y-199933720D02*
X225371448Y-199886219D01*
X225371448Y-199886219D02*
X228033801Y-199795876D01*
X228033801Y-199795876D02*
X232162646Y-199683085D01*
X232162646Y-199683085D02*
X237445758Y-199668232D01*
X237445758Y-199668232D02*
X243510181Y-199651238D01*
X243510181Y-199651238D02*
X248905994Y-199547671D01*
X248905994Y-199547671D02*
X254364063Y-199396161D01*
X254364063Y-199396161D02*
X259053760Y-199223027D01*
X259053760Y-199223027D02*
X263692432Y-199006310D01*
X263692432Y-199006310D02*
X267673389Y-198778027D01*
X267673389Y-198778027D02*
X271550891Y-198510998D01*
X271550891Y-198510998D02*
X273595020Y-198349488D01*
X273595020Y-198349488D02*
X274995959Y-198212826D01*
X274995959Y-198212826D02*
X276331653Y-198038720D01*
X276331653Y-198038720D02*
X277484790Y-197846817D01*
X277484790Y-197846817D02*
X278590137Y-197619725D01*
X278590137Y-197619725D02*
X279575977Y-197375466D01*
X279575977Y-197375466D02*
X280524951Y-197097205D01*
X280524951Y-197097205D02*
X281392200Y-196800555D01*
X283769336Y-195733019D02*
X284489429Y-195321160D01*
X281392200Y-196800555D02*
X282230090Y-196470284D01*
X282230090Y-196470284D02*
X283011768Y-196118649D01*
X283011768Y-196118649D02*
X283769336Y-195733019D01*
X206372455Y-96260693D02*
X200263110Y-96234433D01*
X211576587Y-96231411D02*
X206372455Y-96260693D01*
X216028766Y-96089795D02*
X211576587Y-96231411D01*
X218531604Y-96008557D02*
X216028766Y-96089795D01*
X222512073Y-95989041D02*
X218531604Y-96008557D01*
X226551501Y-96036664D02*
X222512073Y-95989041D01*
X231794421Y-96089795D02*
X226551501Y-96036664D01*
X235957446Y-96107052D02*
X231794421Y-96089795D01*
X284489429Y-195321160D02*
X285189502Y-194874150D01*
X285189502Y-194874150D02*
X285600085Y-194588877D01*
X285600085Y-194588877D02*
X286355762Y-194022669D01*
X286355762Y-194022669D02*
X287059070Y-193444195D01*
X287059070Y-193444195D02*
X287687793Y-192874957D01*
X287687793Y-192874957D02*
X288274585Y-192288979D01*
X288274585Y-192288979D02*
X288813098Y-191694529D01*
X288813098Y-191694529D02*
X289317065Y-191078824D01*
X289317065Y-191078824D02*
X290237964Y-189765612D01*
X290237964Y-189765612D02*
X291078418Y-188289067D01*
X291078418Y-188289067D02*
X291876636Y-186564068D01*
X291876636Y-186564068D02*
X292253467Y-185621266D01*
X292253467Y-185621266D02*
X292998096Y-183451306D01*
X292998096Y-183451306D02*
X293644763Y-181076748D01*
X293644763Y-181076748D02*
X294201770Y-178426754D01*
X294201770Y-178426754D02*
X294676440Y-175398941D01*
X294676440Y-175398941D02*
X295001575Y-172603764D01*
X295001575Y-172603764D02*
X295459766Y-167280838D01*
X295459766Y-167280838D02*
X295801563Y-161466744D01*
X295801563Y-161466744D02*
X296012073Y-155201779D01*
X296012073Y-155201779D02*
X296078052Y-148557751D01*
X296078052Y-148557751D02*
X295989978Y-141644513D01*
X295743945Y-134613812D02*
X295344226Y-127656521D01*
X295344226Y-127656521D02*
X295290881Y-126897870D01*
X295290881Y-126897870D02*
X295096240Y-124480771D01*
X295096240Y-124480771D02*
X294857532Y-122127072D01*
X294857532Y-122127072D02*
X294623645Y-120252499D01*
X294623645Y-120252499D02*
X294350391Y-118427762D01*
X294350391Y-118427762D02*
X294074390Y-116869229D01*
X294074390Y-116869229D02*
X293761523Y-115353909D01*
X293761523Y-115353909D02*
X293443896Y-114020779D01*
X293443896Y-114020779D02*
X293091296Y-112726620D01*
X293091296Y-112726620D02*
X292733203Y-111568951D01*
X292733203Y-111568951D02*
X292341724Y-110447186D01*
X292341724Y-110447186D02*
X291944324Y-109432812D01*
X291944324Y-109432812D02*
X291514819Y-108451977D01*
X291514819Y-108451977D02*
X291078784Y-107558102D01*
X291078784Y-107558102D02*
X290611682Y-106695935D01*
X290611682Y-106695935D02*
X290137073Y-105905453D01*
X290137073Y-105905453D02*
X289632190Y-105145306D01*
X289632190Y-105145306D02*
X289118274Y-104445019D01*
X241560779Y-96179287D02*
X235957446Y-96107052D01*
X289118274Y-104445019D02*
X288574573Y-103774044D01*
X288574573Y-103774044D02*
X288019519Y-103153637D01*
X295989978Y-141644513D02*
X295743945Y-134613812D01*
X288019519Y-103153637D02*
X287434924Y-102561917D01*
X287434924Y-102561917D02*
X286836047Y-102013455D01*
X286836047Y-102013455D02*
X286207568Y-101493390D01*
X286207568Y-101493390D02*
X285561023Y-101011013D01*
X285561023Y-101011013D02*
X284884448Y-100557126D01*
X284185352Y-100136883D02*
X283455554Y-99745556D01*
X283455554Y-99745556D02*
X282697986Y-99385296D01*
X282697986Y-99385296D02*
X281908679Y-99054699D01*
X281908679Y-99054699D02*
X280229785Y-98483975D01*
X280229785Y-98483975D02*
X278402942Y-98035901D01*
X278402942Y-98035901D02*
X277211047Y-97825467D01*
X277211047Y-97825467D02*
X274355945Y-97465909D01*
X284884448Y-100557126D02*
X284185352Y-100136883D01*
X274355945Y-97465909D02*
X270944873Y-97186306D01*
X270944873Y-97186306D02*
X266555957Y-96965664D01*
X266555957Y-96965664D02*
X262602466Y-96812985D01*
X262602466Y-96812985D02*
X254948901Y-96529675D01*
X254948901Y-96529675D02*
X247200000Y-96300000D01*
X247200000Y-96300000D02*
X241560779Y-96179287D01*
M02*
